<?xml version="1.0" encoding="UTF-8" standalone="no"?>
<svg
   xmlns:dc="http://purl.org/dc/elements/1.1/"
   xmlns:cc="http://creativecommons.org/ns#"
   xmlns:rdf="http://www.w3.org/1999/02/22-rdf-syntax-ns#"
   xmlns:svg="http://www.w3.org/2000/svg"
   xmlns="http://www.w3.org/2000/svg"
   xmlns:sodipodi="http://sodipodi.sourceforge.net/DTD/sodipodi-0.dtd"
   xmlns:inkscape="http://www.inkscape.org/namespaces/inkscape"
   version="1.1"
   viewBox="0 0 908.71875 300.59375"
   stroke-miterlimit="10"
   id="svg2"
   inkscape:version="0.48.4 r9939"
   width="100%"
   height="100%"
   sodipodi:docname="WebSocketSerialArchitecture.svg"
   style="fill:none;stroke:none">
  <metadata
     id="metadata251">
    <rdf:RDF>
      <cc:Work
         rdf:about="">
        <dc:format>image/svg+xml</dc:format>
        <dc:type
           rdf:resource="http://purl.org/dc/dcmitype/StillImage" />
      </cc:Work>
    </rdf:RDF>
  </metadata>
  <defs
     id="defs249" />
  <sodipodi:namedview
     pagecolor="#ffffff"
     bordercolor="#666666"
     borderopacity="1"
     objecttolerance="10"
     gridtolerance="10"
     guidetolerance="10"
     inkscape:pageopacity="0"
     inkscape:pageshadow="2"
     inkscape:window-width="1352"
     inkscape:window-height="994"
     id="namedview247"
     showgrid="false"
     fit-margin-top="20"
     fit-margin-left="20"
     fit-margin-right="20"
     fit-margin-bottom="20"
     inkscape:zoom="0.92709556"
     inkscape:cx="433.82167"
     inkscape:cy="24.225197"
     inkscape:window-x="0"
     inkscape:window-y="46"
     inkscape:window-maximized="0"
     inkscape:current-layer="svg2" />
  <clipPath
     id="p.0">
    <path
       d="M 0,0 960,0 960,720 0,720 0,0 z"
       clip-rule="nonzero"
       id="path5"
       inkscape:connector-curvature="0" />
  </clipPath>
  <path
     style="fill:#000000;fill-opacity:0;fill-rule:nonzero"
     inkscape:connector-curvature="0"
     id="path9"
     d="m -18.5,-90.03125 960,0 0,720 -960,0 z" />
  <path
     style="fill:#000000;fill-opacity:0;fill-rule:nonzero"
     inkscape:connector-curvature="0"
     id="path11"
     d="m 198.66798,21.00549 375.30707,0 0,258.58267 -375.30707,0 z" />
  <path
     style="stroke:#000000;stroke-width:2;stroke-linecap:butt;stroke-linejoin:round;stroke-dasharray:2, 6"
     inkscape:connector-curvature="0"
     id="path13"
     d="m 198.66798,21.00549 375.30707,0 0,258.58267 -375.30707,0 z" />
  <path
     style="fill:#cfe2f3;fill-rule:nonzero"
     inkscape:connector-curvature="0"
     id="path15"
     d="m 21.01181,90.60655 76.8189,0 0,105.54329 -76.8189,0 z" />
  <path
     style="stroke:#000000;stroke-width:2;stroke-linecap:butt;stroke-linejoin:round"
     inkscape:connector-curvature="0"
     id="path17"
     d="m 21.01181,90.60655 76.8189,0 0,105.54329 -76.8189,0 z" />
  <path
     style="fill:#000000;fill-opacity:0;fill-rule:nonzero"
     inkscape:connector-curvature="0"
     id="path19"
     d="m 111.57086,137.98187 76.25197,0" />
  <path
     style="stroke:#000000;stroke-width:2;stroke-linecap:butt;stroke-linejoin:round"
     inkscape:connector-curvature="0"
     id="path21"
     d="m 111.57086,137.98187 64.25197,0" />
  <path
     style="fill:#000000;fill-rule:evenodd;stroke:#000000;stroke-width:2;stroke-linecap:butt"
     inkscape:connector-curvature="0"
     id="path23"
     d="m 175.82283,141.28534 9.0762,-3.30347 -9.0762,-3.30346 z" />
  <path
     style="fill:#000000;fill-opacity:0;fill-rule:nonzero"
     inkscape:connector-curvature="0"
     id="path25"
     d="m 184.92651,148.74403 -76.25198,0.0315" />
  <path
     style="stroke:#000000;stroke-width:2;stroke-linecap:butt;stroke-linejoin:round"
     inkscape:connector-curvature="0"
     id="path27"
     d="m 184.92651,148.74403 -64.25197,0.0265" />
  <path
     style="fill:#000000;fill-rule:evenodd;stroke:#000000;stroke-width:2;stroke-linecap:butt"
     inkscape:connector-curvature="0"
     id="path29"
     d="m 120.67317,145.4671 -9.07483,3.30722 9.07756,3.29971 z" />
  <path
     style="fill:#cfe2f3;fill-rule:nonzero"
     inkscape:connector-curvature="0"
     id="path31"
     d="m 47.814964,122.10262 23.212593,0 0,37.00787 -23.212593,0 z" />
  <path
     style="stroke:#000000;stroke-width:2;stroke-linecap:butt;stroke-linejoin:round"
     inkscape:connector-curvature="0"
     id="path33"
     d="m 47.814964,122.10262 23.212593,0 0,37.00787 -23.212593,0 z" />
  <path
     style="fill:#000000;fill-opacity:0;fill-rule:nonzero"
     inkscape:connector-curvature="0"
     id="path35"
     d="m 72.12992,124.31258 8.283463,0" />
  <path
     style="stroke:#000000;stroke-width:2;stroke-linecap:butt;stroke-linejoin:round"
     inkscape:connector-curvature="0"
     id="path37"
     d="m 72.12992,124.31258 8.283463,0" />
  <path
     style="fill:#000000;fill-opacity:0;fill-rule:nonzero"
     inkscape:connector-curvature="0"
     id="path39"
     d="m 72.12992,137.02229 8.283463,0" />
  <path
     style="stroke:#000000;stroke-width:2;stroke-linecap:butt;stroke-linejoin:round"
     inkscape:connector-curvature="0"
     id="path41"
     d="m 72.12992,137.02229 8.283463,0" />
  <path
     style="fill:#000000;fill-opacity:0;fill-rule:nonzero"
     inkscape:connector-curvature="0"
     id="path43"
     d="m 72.12992,143.37715 8.283463,0" />
  <path
     style="stroke:#000000;stroke-width:2;stroke-linecap:butt;stroke-linejoin:round"
     inkscape:connector-curvature="0"
     id="path45"
     d="m 72.12992,143.37715 8.283463,0" />
  <path
     style="fill:#000000;fill-opacity:0;fill-rule:nonzero"
     inkscape:connector-curvature="0"
     id="path47"
     d="m 72.12992,149.73201 8.283463,0" />
  <path
     style="stroke:#000000;stroke-width:2;stroke-linecap:butt;stroke-linejoin:round"
     inkscape:connector-curvature="0"
     id="path49"
     d="m 72.12992,149.73201 8.283463,0" />
  <path
     style="fill:#000000;fill-opacity:0;fill-rule:nonzero"
     inkscape:connector-curvature="0"
     id="path51"
     d="m 72.12992,156.08685 8.283463,0" />
  <path
     style="stroke:#000000;stroke-width:2;stroke-linecap:butt;stroke-linejoin:round"
     inkscape:connector-curvature="0"
     id="path53"
     d="m 72.12992,156.08685 8.283463,0" />
  <path
     style="fill:#000000;fill-opacity:0;fill-rule:nonzero"
     inkscape:connector-curvature="0"
     id="path55"
     d="m 72.12992,130.66743 8.283463,0" />
  <path
     style="stroke:#000000;stroke-width:2;stroke-linecap:butt;stroke-linejoin:round"
     inkscape:connector-curvature="0"
     id="path57"
     d="m 72.12992,130.66743 8.283463,0" />
  <path
     style="fill:#000000;fill-opacity:0;fill-rule:nonzero"
     inkscape:connector-curvature="0"
     id="path59"
     d="m 38.429134,137.02229 8.283466,0" />
  <path
     style="stroke:#000000;stroke-width:2;stroke-linecap:butt;stroke-linejoin:round"
     inkscape:connector-curvature="0"
     id="path61"
     d="m 38.429134,137.02229 8.283466,0" />
  <path
     style="fill:#000000;fill-opacity:0;fill-rule:nonzero"
     inkscape:connector-curvature="0"
     id="path63"
     d="m 38.429134,143.37715 8.283466,0" />
  <path
     style="stroke:#000000;stroke-width:2;stroke-linecap:butt;stroke-linejoin:round"
     inkscape:connector-curvature="0"
     id="path65"
     d="m 38.429134,143.37715 8.283466,0" />
  <path
     style="fill:#000000;fill-opacity:0;fill-rule:nonzero"
     inkscape:connector-curvature="0"
     id="path67"
     d="m 38.429134,149.73201 8.283466,0" />
  <path
     style="stroke:#000000;stroke-width:2;stroke-linecap:butt;stroke-linejoin:round"
     inkscape:connector-curvature="0"
     id="path69"
     d="m 38.429134,149.73201 8.283466,0" />
  <path
     style="fill:#000000;fill-opacity:0;fill-rule:nonzero"
     inkscape:connector-curvature="0"
     id="path71"
     d="m 38.429134,156.08685 8.283466,0" />
  <path
     style="stroke:#000000;stroke-width:2;stroke-linecap:butt;stroke-linejoin:round"
     inkscape:connector-curvature="0"
     id="path73"
     d="m 38.429134,156.08685 8.283466,0" />
  <path
     style="fill:#000000;fill-opacity:0;fill-rule:nonzero"
     inkscape:connector-curvature="0"
     id="path75"
     d="m 38.429134,130.66743 8.283466,0" />
  <path
     style="stroke:#000000;stroke-width:2;stroke-linecap:butt;stroke-linejoin:round"
     inkscape:connector-curvature="0"
     id="path77"
     d="m 38.429134,130.66743 8.283466,0" />
  <path
     style="fill:#000000;fill-opacity:0;fill-rule:nonzero"
     inkscape:connector-curvature="0"
     id="path79"
     d="m 38.429134,124.31258 8.283466,0" />
  <path
     style="stroke:#000000;stroke-width:2;stroke-linecap:butt;stroke-linejoin:round"
     inkscape:connector-curvature="0"
     id="path81"
     d="m 38.429134,124.31258 8.283466,0" />
  <path
     style="fill:#000000;fill-opacity:0;fill-rule:nonzero"
     inkscape:connector-curvature="0"
     id="path83"
     d="m 115.88846,100.00025 64.7244,0 0,30.67717 -64.7244,0 z" />
  <path
     style="fill:#000000;fill-rule:nonzero"
     inkscape:connector-curvature="0"
     id="path85"
     d="m 126.45096,126.92024 0,-13.59375 9.17187,0 0,1.59375 -7.375,0 0,4.21875 6.375,0 0,1.60937 -6.375,0 0,6.17188 -1.79687,0 z m 14.75536,0 0,-12 -4.46875,0 0,-1.59375 10.76562,0 0,1.59375 -4.5,0 0,12 -1.79687,0 z m 7.94285,0 0,-13.59375 4.6875,0 q 1.57813,0 2.42188,0.1875 1.15625,0.26562 1.98437,0.96875 1.07813,0.92187 1.60938,2.34375 0.53125,1.40625 0.53125,3.21875 0,1.54687 -0.35938,2.75 -0.35937,1.1875 -0.92187,1.98437 -0.5625,0.78125 -1.23438,1.23438 -0.67187,0.4375 -1.625,0.67187 -0.95312,0.23438 -2.1875,0.23438 l -4.90625,0 z m 1.79688,-1.60938 2.90625,0 q 1.34375,0 2.10937,-0.25 0.76563,-0.25 1.21875,-0.70312 0.64063,-0.64063 1,-1.71875 0.35938,-1.07813 0.35938,-2.625 0,-2.125 -0.70313,-3.26563 -0.70312,-1.15625 -1.70312,-1.54687 -0.71875,-0.28125 -2.32813,-0.28125 l -2.85937,0 0,10.39062 z m 11.97294,1.60938 0,-13.59375 1.8125,0 0,13.59375 -1.8125,0 z" />
  <path
     style="fill:#cfe2f3;fill-rule:nonzero"
     inkscape:connector-curvature="0"
     id="path87"
     d="m 329.92783,85.54005 0,0 c 0,-4.98457 10.01953,-9.02538 22.37927,-9.02538 12.35971,0 22.37924,4.04081 22.37924,9.02538 l 0,36.10149 c 0,4.98457 -10.01953,9.02537 -22.37924,9.02537 -12.35974,0 -22.37927,-4.0408 -22.37927,-9.02537 z" />
  <path
     style="fill:#000000;fill-opacity:0;fill-rule:nonzero"
     inkscape:connector-curvature="0"
     id="path89"
     d="m 374.68634,85.54005 0,0 c 0,4.98457 -10.01953,9.02537 -22.37924,9.02537 -12.35974,0 -22.37927,-4.0408 -22.37927,-9.02537" />
  <path
     style="fill:#000000;fill-opacity:0;fill-rule:nonzero"
     inkscape:connector-curvature="0"
     id="path91"
     d="m 329.92783,85.54005 0,0 c 0,-4.98457 10.01953,-9.02538 22.37927,-9.02538 12.35971,0 22.37924,4.04081 22.37924,9.02538 l 0,36.10149 c 0,4.98457 -10.01953,9.02537 -22.37924,9.02537 -12.35974,0 -22.37927,-4.0408 -22.37927,-9.02537 z" />
  <path
     style="stroke:#000000;stroke-width:2;stroke-linecap:butt;stroke-linejoin:round"
     inkscape:connector-curvature="0"
     id="path93"
     d="m 374.68634,85.54005 0,0 c 0,4.98457 -10.01953,9.02537 -22.37924,9.02537 -12.35974,0 -22.37927,-4.0408 -22.37927,-9.02537" />
  <path
     style="stroke:#000000;stroke-width:2;stroke-linecap:butt;stroke-linejoin:round"
     inkscape:connector-curvature="0"
     id="path95"
     d="m 329.92783,85.54005 0,0 c 0,-4.98457 10.01953,-9.02538 22.37927,-9.02538 12.35971,0 22.37924,4.04081 22.37924,9.02538 l 0,36.10149 c 0,4.98457 -10.01953,9.02537 -22.37924,9.02537 -12.35974,0 -22.37927,-4.0408 -22.37927,-9.02537 z" />
  <path
     style="fill:#000000;fill-opacity:0;fill-rule:nonzero"
     inkscape:connector-curvature="0"
     id="path97"
     d="m 311.3937,21.00549 113.82675,0 0,37.13386 -113.82675,0 z" />
  <path
     style="fill:#000000;fill-rule:nonzero"
     inkscape:connector-curvature="0"
     id="path99"
     d="m 321.65933,36.23799 0,-1.90625 1.67187,0 0,1.90625 -1.67187,0 z m 0,11.6875 0,-9.85938 1.67187,0 0,9.85938 -1.67187,0 z m 4.12918,0 0,-9.85938 1.5,0 0,1.40625 q 1.09375,-1.625 3.14063,-1.625 0.89062,0 1.64062,0.32813 0.75,0.3125 1.10938,0.84375 0.375,0.51562 0.53125,1.21875 0.0937,0.46875 0.0937,1.625 l 0,6.0625 -1.67188,0 0,-6 q 0,-1.01563 -0.20312,-1.51563 -0.1875,-0.51562 -0.6875,-0.8125 -0.5,-0.29687 -1.17188,-0.29687 -1.0625,0 -1.84375,0.67187 -0.76562,0.67188 -0.76562,2.57813 l 0,5.375 -1.67188,0 z m 16.81323,-3.60938 1.64063,0.21875 q -0.26563,1.6875 -1.375,2.65625 -1.10938,0.95313 -2.73438,0.95313 -2.01562,0 -3.25,-1.3125 -1.21875,-1.32813 -1.21875,-3.79688 0,-1.59375 0.51563,-2.78125 0.53125,-1.20312 1.60937,-1.79687 1.09375,-0.60938 2.35938,-0.60938 1.60937,0 2.625,0.8125 1.01562,0.8125 1.3125,2.3125 l -1.625,0.25 q -0.23438,-1 -0.82813,-1.5 -0.59375,-0.5 -1.42187,-0.5 -1.26563,0 -2.0625,0.90625 -0.78125,0.90625 -0.78125,2.85938 0,1.98437 0.76562,2.89062 0.76563,0.89063 1.98438,0.89063 0.98437,0 1.64062,-0.59375 0.65625,-0.60938 0.84375,-1.85938 z m 2.26563,-1.3125 q 0,-2.73437 1.53125,-4.0625 1.26562,-1.09375 3.09375,-1.09375 2.03125,0 3.3125,1.34375 1.29687,1.32813 1.29687,3.67188 0,1.90625 -0.57812,3 -0.5625,1.07812 -1.65625,1.6875 -1.07813,0.59375 -2.375,0.59375 -2.0625,0 -3.34375,-1.32813 -1.28125,-1.32812 -1.28125,-3.8125 z m 1.71875,0 q 0,1.89063 0.82812,2.82813 0.82813,0.9375 2.07813,0.9375 1.25,0 2.0625,-0.9375 0.82812,-0.95313 0.82812,-2.89063 0,-1.82812 -0.82812,-2.76562 -0.82813,-0.9375 -2.0625,-0.9375 -1.25,0 -2.07813,0.9375 -0.82812,0.9375 -0.82812,2.82812 z m 9.28195,4.92188 0,-9.85938 1.5,0 0,1.39063 q 0.45313,-0.71875 1.21875,-1.15625 0.78125,-0.45313 1.76563,-0.45313 1.09375,0 1.79687,0.45313 0.70313,0.45312 0.98438,1.28125 1.17187,-1.73438 3.04687,-1.73438 1.46875,0 2.25,0.8125 0.79688,0.8125 0.79688,2.5 l 0,6.76563 -1.67188,0 0,-6.20313 q 0,-1 -0.15625,-1.4375 -0.15625,-0.45312 -0.59375,-0.71875 -0.42187,-0.26562 -1,-0.26562 -1.03125,0 -1.71875,0.6875 -0.6875,0.6875 -0.6875,2.21875 l 0,5.71875 -1.67187,0 0,-6.40625 q 0,-1.10938 -0.40625,-1.65625 -0.40625,-0.5625 -1.34375,-0.5625 -0.70313,0 -1.3125,0.375 -0.59375,0.35937 -0.85938,1.07812 -0.26562,0.71875 -0.26562,2.0625 l 0,5.10938 -1.67188,0 z m 15.55643,-11.6875 0,-1.90625 1.67187,0 0,1.90625 -1.67187,0 z m 0,11.6875 0,-9.85938 1.67187,0 0,9.85938 -1.67187,0 z m 4.12921,0 0,-9.85938 1.5,0 0,1.40625 q 1.09375,-1.625 3.14062,-1.625 0.89063,0 1.64063,0.32813 0.75,0.3125 1.10937,0.84375 0.375,0.51562 0.53125,1.21875 0.0937,0.46875 0.0937,1.625 l 0,6.0625 -1.67187,0 0,-6 q 0,-1.01563 -0.20313,-1.51563 -0.1875,-0.51562 -0.6875,-0.8125 -0.5,-0.29687 -1.17187,-0.29687 -1.0625,0 -1.84375,0.67187 -0.76563,0.67188 -0.76563,2.57813 l 0,5.375 -1.67187,0 z m 10.07883,0.8125 1.60937,0.25 q 0.10938,0.75 0.57813,1.09375 0.60937,0.45312 1.6875,0.45312 1.17187,0 1.79687,-0.46875 0.625,-0.45312 0.85938,-1.28125 0.125,-0.51562 0.10937,-2.15625 -1.09375,1.29688 -2.71875,1.29688 -2.03125,0 -3.15625,-1.46875 -1.10937,-1.46875 -1.10937,-3.51563 0,-1.40625 0.51562,-2.59375 0.51563,-1.20312 1.48438,-1.84375 0.96875,-0.65625 2.26562,-0.65625 1.75,0 2.875,1.40625 l 0,-1.1875 1.54688,0 0,8.51563 q 0,2.3125 -0.46875,3.26562 -0.46875,0.96875 -1.48438,1.51563 -1.01562,0.5625 -2.5,0.5625 -1.76562,0 -2.85937,-0.79688 -1.07813,-0.79687 -1.03125,-2.39062 z m 1.375,-5.92188 q 0,1.95313 0.76562,2.84375 0.78125,0.89063 1.9375,0.89063 1.14063,0 1.92188,-0.89063 0.78125,-0.89062 0.78125,-2.78125 0,-1.8125 -0.8125,-2.71875 -0.79688,-0.92187 -1.92188,-0.92187 -1.10937,0 -1.89062,0.90625 -0.78125,0.89062 -0.78125,2.67187 z" />
  <path
     style="fill:#000000;fill-rule:nonzero"
     inkscape:connector-curvature="0"
     id="path101"
     d="m 327.92496,73.70674 0,-4.82813 q -0.39063,0.54688 -1.09375,0.90625 -0.6875,0.35938 -1.48438,0.35938 -1.75,0 -3.01562,-1.39063 -1.26563,-1.40625 -1.26563,-3.84375 0,-1.48437 0.51563,-2.65625 0.51562,-1.1875 1.48437,-1.79687 0.98438,-0.60938 2.15625,-0.60938 1.82813,0 2.875,1.54688 l 0,-1.32813 1.5,0 0,13.64063 -1.67187,0 z m -5.14063,-8.73438 q 0,1.90625 0.79688,2.85938 0.79687,0.9375 1.90625,0.9375 1.0625,0 1.82812,-0.89063 0.78125,-0.90625 0.78125,-2.76562 0,-1.95313 -0.8125,-2.95313 -0.8125,-1 -1.90625,-1 -1.09375,0 -1.84375,0.9375 -0.75,0.92188 -0.75,2.875 z m 15.68821,4.95313 0,-1.45313 q -1.14063,1.67188 -3.125,1.67188 -0.85938,0 -1.625,-0.32813 -0.75,-0.34375 -1.125,-0.84375 -0.35938,-0.5 -0.51563,-1.23437 -0.0937,-0.5 -0.0937,-1.5625 l 0,-6.10938 1.67188,0 0,5.46875 q 0,1.3125 0.0937,1.76563 0.15625,0.65625 0.67187,1.03125 0.51563,0.375 1.26563,0.375 0.75,0 1.40625,-0.375 0.65625,-0.39063 0.92187,-1.04688 0.28125,-0.67187 0.28125,-1.9375 l 0,-5.28125 1.67188,0 0,9.85938 -1.5,0 z m 10.6726,-3.17188 1.71875,0.21875 q -0.40625,1.5 -1.51562,2.34375 -1.09375,0.82813 -2.8125,0.82813 -2.15625,0 -3.42188,-1.32813 -1.26562,-1.32812 -1.26562,-3.73437 0,-2.48438 1.26562,-3.85938 1.28125,-1.375 3.32813,-1.375 1.98437,0 3.23437,1.34375 1.25,1.34375 1.25,3.79688 0,0.14062 -0.0156,0.4375 l -7.34375,0 q 0.0937,1.625 0.92187,2.48437 0.82813,0.85938 2.0625,0.85938 0.90625,0 1.54688,-0.46875 0.65625,-0.48438 1.04687,-1.54688 z m -5.48437,-2.70312 5.5,0 q -0.10938,-1.23438 -0.625,-1.85938 -0.79688,-0.96875 -2.07813,-0.96875 -1.14062,0 -1.9375,0.78125 -0.78125,0.76563 -0.85937,2.04688 z m 15.5632,5.875 0,-1.45313 q -1.14062,1.67188 -3.125,1.67188 -0.85937,0 -1.625,-0.32813 -0.75,-0.34375 -1.125,-0.84375 -0.35937,-0.5 -0.51562,-1.23437 -0.0937,-0.5 -0.0937,-1.5625 l 0,-6.10938 1.67187,0 0,5.46875 q 0,1.3125 0.0937,1.76563 0.15625,0.65625 0.67188,1.03125 0.51562,0.375 1.26562,0.375 0.75,0 1.40625,-0.375 0.65625,-0.39063 0.92188,-1.04688 0.28125,-0.67187 0.28125,-1.9375 l 0,-5.28125 1.67187,0 0,9.85938 -1.5,0 z m 10.67261,-3.17188 1.71875,0.21875 q -0.40625,1.5 -1.51563,2.34375 -1.09375,0.82813 -2.8125,0.82813 -2.15625,0 -3.42187,-1.32813 -1.26563,-1.32812 -1.26563,-3.73437 0,-2.48438 1.26563,-3.85938 1.28125,-1.375 3.32812,-1.375 1.98438,0 3.23438,1.34375 1.25,1.34375 1.25,3.79688 0,0.14062 -0.0156,0.4375 l -7.34375,0 q 0.0937,1.625 0.92188,2.48437 0.82812,0.85938 2.0625,0.85938 0.90625,0 1.54687,-0.46875 0.65625,-0.48438 1.04688,-1.54688 z m -5.48438,-2.70312 5.5,0 q -0.10937,-1.23438 -0.625,-1.85938 -0.79687,-0.96875 -2.07812,-0.96875 -1.14063,0 -1.9375,0.78125 -0.78125,0.76563 -0.85938,2.04688 z" />
  <path
     style="fill:#cfe2f3;fill-rule:nonzero"
     inkscape:connector-curvature="0"
     id="path103"
     d="m 329.92783,168.13455 0,0 c 0,-4.98459 10.01953,-9.02538 22.37927,-9.02538 12.35971,0 22.37924,4.04079 22.37924,9.02538 l 0,36.10147 c 0,4.98459 -10.01953,9.02539 -22.37924,9.02539 -12.35974,0 -22.37927,-4.0408 -22.37927,-9.02539 z" />
  <path
     style="fill:#000000;fill-opacity:0;fill-rule:nonzero"
     inkscape:connector-curvature="0"
     id="path105"
     d="m 374.68634,168.13455 0,0 c 0,4.98456 -10.01953,9.02536 -22.37924,9.02536 -12.35974,0 -22.37927,-4.0408 -22.37927,-9.02536" />
  <path
     style="fill:#000000;fill-opacity:0;fill-rule:nonzero"
     inkscape:connector-curvature="0"
     id="path107"
     d="m 329.92783,168.13455 0,0 c 0,-4.98459 10.01953,-9.02538 22.37927,-9.02538 12.35971,0 22.37924,4.04079 22.37924,9.02538 l 0,36.10147 c 0,4.98459 -10.01953,9.02539 -22.37924,9.02539 -12.35974,0 -22.37927,-4.0408 -22.37927,-9.02539 z" />
  <path
     style="stroke:#000000;stroke-width:2;stroke-linecap:butt;stroke-linejoin:round"
     inkscape:connector-curvature="0"
     id="path109"
     d="m 374.68634,168.13455 0,0 c 0,4.98456 -10.01953,9.02536 -22.37924,9.02536 -12.35974,0 -22.37927,-4.0408 -22.37927,-9.02536" />
  <path
     style="stroke:#000000;stroke-width:2;stroke-linecap:butt;stroke-linejoin:round"
     inkscape:connector-curvature="0"
     id="path111"
     d="m 329.92783,168.13455 0,0 c 0,-4.98459 10.01953,-9.02538 22.37927,-9.02538 12.35971,0 22.37924,4.04079 22.37924,9.02538 l 0,36.10147 c 0,4.98459 -10.01953,9.02539 -22.37924,9.02539 -12.35974,0 -22.37927,-4.0408 -22.37927,-9.02539 z" />
  <path
     style="fill:#000000;fill-opacity:0;fill-rule:nonzero"
     inkscape:connector-curvature="0"
     id="path113"
     d="m 311.39502,204.95695 113.82675,0 0,37.13385 -113.82675,0 z" />
  <path
     style="fill:#000000;fill-rule:nonzero"
     inkscape:connector-curvature="0"
     id="path115"
     d="m 321.02002,226.95505 q 0,-2.73437 1.53125,-4.0625 1.26562,-1.09375 3.09375,-1.09375 2.03125,0 3.3125,1.34375 1.29687,1.32813 1.29687,3.67188 0,1.90625 -0.57812,3 -0.5625,1.07812 -1.65625,1.6875 -1.07813,0.59375 -2.375,0.59375 -2.0625,0 -3.34375,-1.32813 -1.28125,-1.32812 -1.28125,-3.8125 z m 1.71875,0 q 0,1.89063 0.82812,2.82813 0.82813,0.9375 2.07813,0.9375 1.25,0 2.0625,-0.9375 0.82812,-0.95313 0.82812,-2.89063 0,-1.82812 -0.82812,-2.76562 -0.82813,-0.9375 -2.0625,-0.9375 -1.25,0 -2.07813,0.9375 -0.82812,0.9375 -0.82812,2.82812 z m 15.73508,4.92188 0,-1.45313 q -1.14063,1.67188 -3.125,1.67188 -0.85938,0 -1.625,-0.32813 -0.75,-0.34375 -1.125,-0.84375 -0.35938,-0.5 -0.51563,-1.23437 -0.0937,-0.5 -0.0937,-1.5625 l 0,-6.10938 1.67188,0 0,5.46875 q 0,1.3125 0.0937,1.76563 0.15625,0.65625 0.67187,1.03125 0.51563,0.375 1.26563,0.375 0.75,0 1.40625,-0.375 0.65625,-0.39063 0.92187,-1.04688 0.28125,-0.67187 0.28125,-1.9375 l 0,-5.28125 1.67188,0 0,9.85938 -1.5,0 z m 7.57885,-1.5 0.23438,1.48437 q -0.70313,0.14063 -1.26563,0.14063 -0.90625,0 -1.40625,-0.28125 -0.5,-0.29688 -0.70312,-0.75 -0.20313,-0.46875 -0.20313,-1.98438 l 0,-5.65625 -1.23437,0 0,-1.3125 1.23437,0 0,-2.4375 1.65625,-1 0,3.4375 1.6875,0 0,1.3125 -1.6875,0 0,5.75 q 0,0.71875 0.0781,0.92188 0.0937,0.20312 0.29687,0.32812 0.20313,0.125 0.57813,0.125 0.26562,0 0.73437,-0.0781 z m 1.23017,2.3125 1.60937,0.25 q 0.10938,0.75 0.57813,1.09375 0.60937,0.45312 1.6875,0.45312 1.17187,0 1.79687,-0.46875 0.625,-0.45312 0.85938,-1.28125 0.125,-0.51562 0.10937,-2.15625 -1.09375,1.29688 -2.71875,1.29688 -2.03125,0 -3.15625,-1.46875 -1.10937,-1.46875 -1.10937,-3.51563 0,-1.40625 0.51562,-2.59375 0.51563,-1.20312 1.48438,-1.84375 0.96875,-0.65625 2.26562,-0.65625 1.75,0 2.875,1.40625 l 0,-1.1875 1.54688,0 0,8.51563 q 0,2.3125 -0.46875,3.26562 -0.46875,0.96875 -1.48438,1.51563 -1.01562,0.5625 -2.5,0.5625 -1.76562,0 -2.85937,-0.79688 -1.07813,-0.79687 -1.03125,-2.39062 z m 1.375,-5.92188 q 0,1.95313 0.76562,2.84375 0.78125,0.89063 1.9375,0.89063 1.14063,0 1.92188,-0.89063 0.78125,-0.89062 0.78125,-2.78125 0,-1.8125 -0.8125,-2.71875 -0.79688,-0.92187 -1.92188,-0.92187 -1.10937,0 -1.89062,0.90625 -0.78125,0.89062 -0.78125,2.67187 z m 8.6726,0.1875 q 0,-2.73437 1.53125,-4.0625 1.26563,-1.09375 3.09375,-1.09375 2.03125,0 3.3125,1.34375 1.29688,1.32813 1.29688,3.67188 0,1.90625 -0.57813,3 -0.5625,1.07812 -1.65625,1.6875 -1.07812,0.59375 -2.375,0.59375 -2.0625,0 -3.34375,-1.32813 -1.28125,-1.32812 -1.28125,-3.8125 z m 1.71875,0 q 0,1.89063 0.82813,2.82813 0.82812,0.9375 2.07812,0.9375 1.25,0 2.0625,-0.9375 0.82813,-0.95313 0.82813,-2.89063 0,-1.82812 -0.82813,-2.76562 -0.82812,-0.9375 -2.0625,-0.9375 -1.25,0 -2.07812,0.9375 -0.82813,0.9375 -0.82813,2.82812 z m 9.29758,-6.76562 0,-1.90625 1.67188,0 0,1.90625 -1.67188,0 z m 0,11.6875 0,-9.85938 1.67188,0 0,9.85938 -1.67188,0 z m 4.12921,0 0,-9.85938 1.5,0 0,1.40625 q 1.09375,-1.625 3.14063,-1.625 0.89062,0 1.64062,0.32813 0.75,0.3125 1.10938,0.84375 0.375,0.51562 0.53125,1.21875 0.0937,0.46875 0.0937,1.625 l 0,6.0625 -1.67188,0 0,-6 q 0,-1.01563 -0.20312,-1.51563 -0.1875,-0.51562 -0.6875,-0.8125 -0.5,-0.29687 -1.17188,-0.29687 -1.0625,0 -1.84375,0.67187 -0.76562,0.67188 -0.76562,2.57813 l 0,5.375 -1.67188,0 z m 10.07883,0.8125 1.60938,0.25 q 0.10937,0.75 0.57812,1.09375 0.60938,0.45312 1.6875,0.45312 1.17188,0 1.79688,-0.46875 0.625,-0.45312 0.85937,-1.28125 0.125,-0.51562 0.10938,-2.15625 -1.09375,1.29688 -2.71875,1.29688 -2.03125,0 -3.15625,-1.46875 -1.10938,-1.46875 -1.10938,-3.51563 0,-1.40625 0.51563,-2.59375 0.51562,-1.20312 1.48437,-1.84375 0.96875,-0.65625 2.26563,-0.65625 1.75,0 2.875,1.40625 l 0,-1.1875 1.54687,0 0,8.51563 q 0,2.3125 -0.46875,3.26562 -0.46875,0.96875 -1.48437,1.51563 -1.01563,0.5625 -2.5,0.5625 -1.76563,0 -2.85938,-0.79688 -1.07812,-0.79687 -1.03125,-2.39062 z m 1.375,-5.92188 q 0,1.95313 0.76563,2.84375 0.78125,0.89063 1.9375,0.89063 1.14062,0 1.92187,-0.89063 0.78125,-0.89062 0.78125,-2.78125 0,-1.8125 -0.8125,-2.71875 -0.79687,-0.92187 -1.92187,-0.92187 -1.10938,0 -1.89063,0.90625 -0.78125,0.89062 -0.78125,2.67187 z" />
  <path
     style="fill:#000000;fill-rule:nonzero"
     inkscape:connector-curvature="0"
     id="path117"
     d="m 327.92627,257.65817 0,-4.82813 q -0.39063,0.54688 -1.09375,0.90625 -0.6875,0.35938 -1.48438,0.35938 -1.75,0 -3.01562,-1.39063 -1.26563,-1.40625 -1.26563,-3.84375 0,-1.48437 0.51563,-2.65625 0.51562,-1.1875 1.48437,-1.79687 0.98438,-0.60938 2.15625,-0.60938 1.82813,0 2.875,1.54688 l 0,-1.32813 1.5,0 0,13.64063 -1.67187,0 z m -5.14063,-8.73438 q 0,1.90625 0.79688,2.85938 0.79687,0.9375 1.90625,0.9375 1.0625,0 1.82812,-0.89063 0.78125,-0.90625 0.78125,-2.76562 0,-1.95313 -0.8125,-2.95313 -0.8125,-1 -1.90625,-1 -1.09375,0 -1.84375,0.9375 -0.75,0.92188 -0.75,2.875 z m 15.68821,4.95313 0,-1.45313 q -1.14063,1.67188 -3.125,1.67188 -0.85938,0 -1.625,-0.32813 -0.75,-0.34375 -1.125,-0.84375 -0.35938,-0.5 -0.51563,-1.23437 -0.0937,-0.5 -0.0937,-1.5625 l 0,-6.10938 1.67188,0 0,5.46875 q 0,1.3125 0.0937,1.76563 0.15625,0.65625 0.67187,1.03125 0.51563,0.375 1.26563,0.375 0.75,0 1.40625,-0.375 0.65625,-0.39063 0.92187,-1.04688 0.28125,-0.67187 0.28125,-1.9375 l 0,-5.28125 1.67188,0 0,9.85938 -1.5,0 z m 10.6726,-3.17188 1.71875,0.21875 q -0.40625,1.5 -1.51562,2.34375 -1.09375,0.82813 -2.8125,0.82813 -2.15625,0 -3.42188,-1.32813 -1.26562,-1.32812 -1.26562,-3.73437 0,-2.48438 1.26562,-3.85938 1.28125,-1.375 3.32813,-1.375 1.98437,0 3.23437,1.34375 1.25,1.34375 1.25,3.79688 0,0.14062 -0.0156,0.4375 l -7.34375,0 q 0.0937,1.625 0.92187,2.48437 0.82813,0.85938 2.0625,0.85938 0.90625,0 1.54688,-0.46875 0.65625,-0.48438 1.04687,-1.54688 z m -5.48437,-2.70312 5.5,0 q -0.10938,-1.23438 -0.625,-1.85938 -0.79688,-0.96875 -2.07813,-0.96875 -1.14062,0 -1.9375,0.78125 -0.78125,0.76563 -0.85937,2.04688 z m 15.5632,5.875 0,-1.45313 q -1.14062,1.67188 -3.125,1.67188 -0.85937,0 -1.625,-0.32813 -0.75,-0.34375 -1.125,-0.84375 -0.35937,-0.5 -0.51562,-1.23437 -0.0937,-0.5 -0.0937,-1.5625 l 0,-6.10938 1.67187,0 0,5.46875 q 0,1.3125 0.0937,1.76563 0.15625,0.65625 0.67188,1.03125 0.51562,0.375 1.26562,0.375 0.75,0 1.40625,-0.375 0.65625,-0.39063 0.92188,-1.04688 0.28125,-0.67187 0.28125,-1.9375 l 0,-5.28125 1.67187,0 0,9.85938 -1.5,0 z m 10.67261,-3.17188 1.71875,0.21875 q -0.40625,1.5 -1.51563,2.34375 -1.09375,0.82813 -2.8125,0.82813 -2.15625,0 -3.42187,-1.32813 -1.26563,-1.32812 -1.26563,-3.73437 0,-2.48438 1.26563,-3.85938 1.28125,-1.375 3.32812,-1.375 1.98438,0 3.23438,1.34375 1.25,1.34375 1.25,3.79688 0,0.14062 -0.0156,0.4375 l -7.34375,0 q 0.0937,1.625 0.92188,2.48437 0.82812,0.85938 2.0625,0.85938 0.90625,0 1.54687,-0.46875 0.65625,-0.48438 1.04688,-1.54688 z m -5.48438,-2.70312 5.5,0 q -0.10937,-1.23438 -0.625,-1.85938 -0.79687,-0.96875 -2.07812,-0.96875 -1.14063,0 -1.9375,0.78125 -0.78125,0.76563 -0.85938,2.04688 z" />
  <path
     style="fill:#000000;fill-opacity:0;fill-rule:nonzero"
     inkscape:connector-curvature="0"
     id="path119"
     d="m 272.7126,130.9425 51.93701,-22.55118" />
  <path
     style="stroke:#000000;stroke-width:2;stroke-linecap:butt;stroke-linejoin:round"
     inkscape:connector-curvature="0"
     id="path121"
     d="m 272.7126,130.9425 40.92984,-17.77184" />
  <path
     style="fill:#000000;fill-rule:evenodd;stroke:#000000;stroke-width:2;stroke-linecap:butt"
     inkscape:connector-curvature="0"
     id="path123"
     d="m 314.95813,116.20082 7.00958,-6.645 -9.64099,0.5847 z" />
  <path
     style="fill:#000000;fill-opacity:0;fill-rule:nonzero"
     inkscape:connector-curvature="0"
     id="path125"
     d="M 318.30185,185.09473 277.7034,159.11049" />
  <path
     style="stroke:#000000;stroke-width:2;stroke-linecap:butt;stroke-linejoin:round"
     inkscape:connector-curvature="0"
     id="path127"
     d="M 318.30185,185.09473 287.81052,165.57936" />
  <path
     style="fill:#000000;fill-rule:evenodd;stroke:#000000;stroke-width:2;stroke-linecap:butt"
     inkscape:connector-curvature="0"
     id="path129"
     d="m 289.59134,162.79697 -9.42532,-2.11034 5.8637,7.6751 z" />
  <path
     style="fill:#cfe2f3;fill-rule:nonzero"
     inkscape:connector-curvature="0"
     id="path131"
     d="m 214.14043,127.90314 38.95274,0 0,41.15747 -38.95274,0 z" />
  <path
     style="fill:#a5b4c2;fill-rule:nonzero"
     inkscape:connector-curvature="0"
     id="path133"
     d="m 253.09317,127.90314 12.98425,-12.98425 0,41.15747 -12.98425,12.98425 z" />
  <path
     style="fill:#d8e7f5;fill-rule:nonzero"
     inkscape:connector-curvature="0"
     id="path135"
     d="m 214.14043,127.90314 12.98424,-12.98425 38.95276,0 -12.98426,12.98425 z" />
  <path
     style="fill:#000000;fill-opacity:0;fill-rule:nonzero"
     inkscape:connector-curvature="0"
     id="path137"
     d="m 214.14043,127.90314 12.98424,-12.98425 38.95276,0 0,41.15747 -12.98426,12.98425 -38.95274,0 z m 0,0 38.95274,0 12.98426,-12.98425 m -12.98426,12.98425 0,41.15747" />
  <path
     style="stroke:#000000;stroke-width:2;stroke-linecap:butt;stroke-linejoin:round"
     inkscape:connector-curvature="0"
     id="path139"
     d="m 214.14043,127.90314 12.98424,-12.98425 38.95276,0 0,41.15747 -12.98426,12.98425 -38.95274,0 z m 0,0 38.95274,0 12.98426,-12.98425 m -12.98426,12.98425 0,41.15747" />
  <path
     style="fill:#000000;fill-opacity:0;fill-rule:nonzero"
     inkscape:connector-curvature="0"
     id="path141"
     d="m 199.46326,174.2811 81.29135,0 0,30.67715 -81.29135,0 z" />
  <path
     style="fill:#000000;fill-rule:nonzero"
     inkscape:connector-curvature="0"
     id="path143"
     d="m 212.307,201.20108 -3.60938,-13.59375 1.84375,0 2.0625,8.90625 q 0.34375,1.40625 0.57813,2.78125 0.51562,-2.17188 0.60937,-2.51563 l 2.59375,-9.17187 2.17188,0 1.95312,6.875 q 0.73438,2.5625 1.04688,4.8125 0.26562,-1.28125 0.6875,-2.95313 l 2.125,-8.73437 1.8125,0 -3.73438,13.59375 -1.73437,0 -2.85938,-10.35938 q -0.35937,-1.29687 -0.42187,-1.59375 -0.21875,0.9375 -0.40625,1.59375 l -2.89063,10.35938 -1.82812,0 z m 14.38991,-4.92188 q 0,-2.73437 1.53125,-4.0625 1.26562,-1.09375 3.09375,-1.09375 2.03125,0 3.3125,1.34375 1.29687,1.32813 1.29687,3.67188 0,1.90625 -0.57812,3 -0.5625,1.07812 -1.65625,1.6875 -1.07813,0.59375 -2.375,0.59375 -2.0625,0 -3.34375,-1.32813 -1.28125,-1.32812 -1.28125,-3.8125 z m 1.71875,0 q 0,1.89063 0.82812,2.82813 0.82813,0.9375 2.07813,0.9375 1.25,0 2.0625,-0.9375 0.82812,-0.95313 0.82812,-2.89063 0,-1.82812 -0.82812,-2.76562 -0.82813,-0.9375 -2.0625,-0.9375 -1.25,0 -2.07813,0.9375 -0.82812,0.9375 -0.82812,2.82812 z m 9.26634,4.92188 0,-9.85938 1.5,0 0,1.5 q 0.57812,-1.04687 1.0625,-1.375 0.48437,-0.34375 1.07812,-0.34375 0.84375,0 1.71875,0.54688 l -0.57812,1.54687 q -0.60938,-0.35937 -1.23438,-0.35937 -0.54687,0 -0.98437,0.32812 -0.42188,0.32813 -0.60938,0.90625 -0.28125,0.89063 -0.28125,1.95313 l 0,5.15625 -1.67187,0 z m 6.24393,0 0,-13.59375 1.67187,0 0,7.75 3.95313,-4.01563 2.15625,0 -3.76563,3.65625 4.14063,6.20313 -2.0625,0 -3.25,-5.03125 -1.17188,1.125 0,3.90625 -1.67187,0 z m 16.0625,-3.17188 1.71875,0.21875 q -0.40625,1.5 -1.51563,2.34375 -1.09375,0.82813 -2.8125,0.82813 -2.15625,0 -3.42187,-1.32813 -1.26563,-1.32812 -1.26563,-3.73437 0,-2.48438 1.26563,-3.85938 1.28125,-1.375 3.32812,-1.375 1.98438,0 3.23438,1.34375 1.25,1.34375 1.25,3.79688 0,0.14062 -0.0156,0.4375 l -7.34375,0 q 0.0937,1.625 0.92188,2.48437 0.82812,0.85938 2.0625,0.85938 0.90625,0 1.54687,-0.46875 0.65625,-0.48438 1.04688,-1.54688 z m -5.48438,-2.70312 5.5,0 q -0.10937,-1.23438 -0.625,-1.85938 -0.79687,-0.96875 -2.07812,-0.96875 -1.14063,0 -1.9375,0.78125 -0.78125,0.76563 -0.85938,2.04688 z m 9.09445,5.875 0,-9.85938 1.5,0 0,1.5 q 0.57813,-1.04687 1.0625,-1.375 0.48438,-0.34375 1.07813,-0.34375 0.84375,0 1.71875,0.54688 l -0.57813,1.54687 q -0.60937,-0.35937 -1.23437,-0.35937 -0.54688,0 -0.98438,0.32812 -0.42187,0.32813 -0.60937,0.90625 -0.28125,0.89063 -0.28125,1.95313 l 0,5.15625 -1.67188,0 z" />
  <path
     style="fill:#cfe2f3;fill-rule:nonzero"
     inkscape:connector-curvature="0"
     id="path145"
     d="m 466.37927,113.90707 43.11023,0 0,46.95276 -43.11023,0 z" />
  <path
     style="fill:#a5b4c2;fill-rule:nonzero"
     inkscape:connector-curvature="0"
     id="path147"
     d="m 509.4895,113.90707 14.37006,-14.37009 0,46.95276 -14.37006,14.37009 z" />
  <path
     style="fill:#d8e7f5;fill-rule:nonzero"
     inkscape:connector-curvature="0"
     id="path149"
     d="m 466.37927,113.90707 14.37006,-14.37009 43.11023,0 -14.37006,14.37009 z" />
  <path
     style="fill:#000000;fill-opacity:0;fill-rule:nonzero"
     inkscape:connector-curvature="0"
     id="path151"
     d="m 466.37927,113.90707 14.37006,-14.37009 43.11023,0 0,46.95276 -14.37006,14.37009 -43.11023,0 z m 0,0 43.11023,0 14.37006,-14.37009 m -14.37006,14.37009 0,46.95276" />
  <path
     style="stroke:#000000;stroke-width:2;stroke-linecap:butt;stroke-linejoin:round"
     inkscape:connector-curvature="0"
     id="path153"
     d="m 466.37927,113.90707 14.37006,-14.37009 43.11023,0 0,46.95276 -14.37006,14.37009 -43.11023,0 z m 0,0 43.11023,0 14.37006,-14.37009 m -14.37006,14.37009 0,46.95276" />
  <path
     style="fill:#000000;fill-opacity:0;fill-rule:nonzero"
     inkscape:connector-curvature="0"
     id="path155"
     d="m 449.68634,170.37952 113.82678,0 0,30.67716 -113.82678,0 z" />
  <path
     style="fill:#000000;fill-rule:nonzero"
     inkscape:connector-curvature="0"
     id="path157"
     d="m 463.60822,197.2995 0,-12 -4.46875,0 0,-1.59375 10.76563,0 0,1.59375 -4.5,0 0,12 -1.79688,0 z m 7.09912,-4.92187 q 0,-2.73438 1.53125,-4.0625 1.26563,-1.09375 3.09375,-1.09375 2.03125,0 3.3125,1.34375 1.29688,1.32812 1.29688,3.67187 0,1.90625 -0.57813,3 -0.5625,1.07813 -1.65625,1.6875 -1.07812,0.59375 -2.375,0.59375 -2.0625,0 -3.34375,-1.32812 -1.28125,-1.32813 -1.28125,-3.8125 z m 1.71875,0 q 0,1.89062 0.82813,2.82812 0.82812,0.9375 2.07812,0.9375 1.25,0 2.0625,-0.9375 0.82813,-0.95312 0.82813,-2.89062 0,-1.82813 -0.82813,-2.76563 -0.82812,-0.9375 -2.0625,-0.9375 -1.25,0 -2.07812,0.9375 -0.82813,0.9375 -0.82813,2.82813 z m 9.26633,4.92187 0,-9.85937 1.5,0 0,1.5 q 0.57812,-1.04688 1.0625,-1.375 0.48437,-0.34375 1.07812,-0.34375 0.84375,0 1.71875,0.54687 l -0.57812,1.54688 q -0.60938,-0.35938 -1.23438,-0.35938 -0.54687,0 -0.98437,0.32813 -0.42188,0.32812 -0.60938,0.90625 -0.28125,0.89062 -0.28125,1.95312 l 0,5.15625 -1.67187,0 z m 6.2283,0 0,-9.85937 1.5,0 0,1.40625 q 1.09375,-1.625 3.14063,-1.625 0.89062,0 1.64062,0.32812 0.75,0.3125 1.10938,0.84375 0.375,0.51563 0.53125,1.21875 0.0937,0.46875 0.0937,1.625 l 0,6.0625 -1.67188,0 0,-6 q 0,-1.01562 -0.20312,-1.51562 -0.1875,-0.51563 -0.6875,-0.8125 -0.5,-0.29688 -1.17188,-0.29688 -1.0625,0 -1.84375,0.67188 -0.76562,0.67187 -0.76562,2.57812 l 0,5.375 -1.67188,0 z m 16.81323,-1.21875 q -0.9375,0.79688 -1.79687,1.125 -0.85938,0.3125 -1.84375,0.3125 -1.60938,0 -2.48438,-0.78125 -0.875,-0.79687 -0.875,-2.03125 0,-0.73437 0.32813,-1.32812 0.32812,-0.59375 0.85937,-0.95313 0.53125,-0.35937 1.20313,-0.54687 0.5,-0.14063 1.48437,-0.25 2.03125,-0.25 2.98438,-0.57813 0,-0.34375 0,-0.4375 0,-1.01562 -0.46875,-1.4375 -0.64063,-0.5625 -1.90625,-0.5625 -1.17188,0 -1.73438,0.40625 -0.5625,0.40625 -0.82812,1.46875 l -1.64063,-0.23437 q 0.23438,-1.04688 0.73438,-1.6875 0.51562,-0.64063 1.46875,-0.98438 0.96875,-0.35937 2.25,-0.35937 1.26562,0 2.04687,0.29687 0.78125,0.29688 1.15625,0.75 0.375,0.45313 0.51563,1.14063 0.0937,0.42187 0.0937,1.53125 l 0,2.23437 q 0,2.32813 0.0937,2.95313 0.10937,0.60937 0.4375,1.17187 l -1.75,0 q -0.26563,-0.51562 -0.32813,-1.21875 z m -0.14062,-3.71875 q -0.90625,0.35938 -2.73438,0.625 -1.03125,0.14063 -1.45312,0.32813 -0.42188,0.1875 -0.65625,0.54687 -0.23438,0.35938 -0.23438,0.79688 0,0.67187 0.5,1.125 0.51563,0.4375 1.48438,0.4375 0.96875,0 1.71875,-0.42188 0.75,-0.4375 1.10937,-1.15625 0.26563,-0.57812 0.26563,-1.67187 l 0,-0.60938 z m 10.46948,4.9375 0,-1.25 q -0.9375,1.46875 -2.75,1.46875 -1.17188,0 -2.17188,-0.64062 -0.98437,-0.65625 -1.53125,-1.8125 -0.53125,-1.17188 -0.53125,-2.6875 0,-1.46875 0.48438,-2.67188 0.5,-1.20312 1.46875,-1.84375 0.98437,-0.64062 2.20312,-0.64062 0.89063,0 1.57813,0.375 0.70312,0.375 1.14062,0.98437 l 0,-4.875 1.65625,0 0,13.59375 -1.54687,0 z m -5.28125,-4.92187 q 0,1.89062 0.79687,2.82812 0.8125,0.9375 1.89063,0.9375 1.09375,0 1.85937,-0.89062 0.76563,-0.89063 0.76563,-2.73438 0,-2.01562 -0.78125,-2.95312 -0.78125,-0.95313 -1.92188,-0.95313 -1.10937,0 -1.85937,0.90625 -0.75,0.90625 -0.75,2.85938 z m 8.6413,0 q 0,-2.73438 1.53125,-4.0625 1.26562,-1.09375 3.09375,-1.09375 2.03125,0 3.3125,1.34375 1.29687,1.32812 1.29687,3.67187 0,1.90625 -0.57812,3 -0.5625,1.07813 -1.65625,1.6875 -1.07813,0.59375 -2.375,0.59375 -2.0625,0 -3.34375,-1.32812 -1.28125,-1.32813 -1.28125,-3.8125 z m 1.71875,0 q 0,1.89062 0.82812,2.82812 0.82813,0.9375 2.07813,0.9375 1.25,0 2.0625,-0.9375 0.82812,-0.95312 0.82812,-2.89062 0,-1.82813 -0.82812,-2.76563 -0.82813,-0.9375 -2.0625,-0.9375 -1.25,0 -2.07813,0.9375 -0.82812,0.9375 -0.82812,2.82813 z" />
  <path
     style="fill:#000000;fill-rule:nonzero"
     inkscape:connector-curvature="0"
     id="path159"
     d="m 462.5301,219.2995 -3.60938,-13.59375 1.84375,0 2.0625,8.90625 q 0.34375,1.40625 0.57813,2.78125 0.51562,-2.17187 0.60937,-2.51562 l 2.59375,-9.17188 2.17188,0 1.95312,6.875 q 0.73438,2.5625 1.04688,4.8125 0.26562,-1.28125 0.6875,-2.95312 l 2.125,-8.73438 1.8125,0 -3.73438,13.59375 -1.73437,0 -2.85938,-10.35937 q -0.35937,-1.29688 -0.42187,-1.59375 -0.21875,0.9375 -0.40625,1.59375 l -2.89063,10.35937 -1.82812,0 z m 21.76492,-3.17187 1.71875,0.21875 q -0.40625,1.5 -1.51562,2.34375 -1.09375,0.82812 -2.8125,0.82812 -2.15625,0 -3.42188,-1.32812 -1.26562,-1.32813 -1.26562,-3.73438 0,-2.48437 1.26562,-3.85937 1.28125,-1.375 3.32813,-1.375 1.98437,0 3.23437,1.34375 1.25,1.34375 1.25,3.79687 0,0.14063 -0.0156,0.4375 l -7.34375,0 q 0.0937,1.625 0.92187,2.48438 0.82813,0.85937 2.0625,0.85937 0.90625,0 1.54688,-0.46875 0.65625,-0.48437 1.04687,-1.54687 z m -5.48437,-2.70313 5.5,0 q -0.10938,-1.23437 -0.625,-1.85937 -0.79688,-0.96875 -2.07813,-0.96875 -1.14062,0 -1.9375,0.78125 -0.78125,0.76562 -0.85937,2.04687 z m 10.65695,5.875 -1.54688,0 0,-13.59375 1.65625,0 0,4.84375 q 1.0625,-1.32812 2.70313,-1.32812 0.90625,0 1.71875,0.375 0.8125,0.35937 1.32812,1.03125 0.53125,0.65625 0.82813,1.59375 0.29687,0.9375 0.29687,2 0,2.53125 -1.25,3.92187 -1.25,1.375 -3,1.375 -1.75,0 -2.73437,-1.45312 l 0,1.23437 z m -0.0156,-5 q 0,1.76563 0.46875,2.5625 0.79688,1.28125 2.14063,1.28125 1.09375,0 1.89062,-0.9375 0.79688,-0.95312 0.79688,-2.84375 0,-1.92187 -0.76563,-2.84375 -0.76562,-0.92187 -1.84375,-0.92187 -1.09375,0 -1.89062,0.95312 -0.79688,0.95313 -0.79688,2.75 z m 8.17261,2.0625 1.65625,-0.26562 q 0.14063,1 0.76563,1.53125 0.64062,0.51562 1.78125,0.51562 1.15625,0 1.70312,-0.46875 0.5625,-0.46875 0.5625,-1.09375 0,-0.5625 -0.48437,-0.89062 -0.34375,-0.21875 -1.70313,-0.5625 -1.84375,-0.46875 -2.5625,-0.79688 -0.70312,-0.34375 -1.07812,-0.9375 -0.35938,-0.60937 -0.35938,-1.32812 0,-0.65625 0.29688,-1.21875 0.3125,-0.5625 0.82812,-0.9375 0.39063,-0.28125 1.0625,-0.48438 0.67188,-0.20312 1.4375,-0.20312 1.17188,0 2.04688,0.34375 0.875,0.32812 1.28125,0.90625 0.42187,0.5625 0.57812,1.51562 l -1.625,0.21875 q -0.10937,-0.75 -0.65625,-1.17187 -0.53125,-0.4375 -1.5,-0.4375 -1.15625,0 -1.64062,0.39062 -0.48438,0.375 -0.48438,0.875 0,0.32813 0.20313,0.59375 0.20312,0.26563 0.64062,0.4375 0.25,0.0937 1.46875,0.4375 1.76563,0.46875 2.46875,0.76563 0.70313,0.29687 1.09375,0.875 0.40625,0.57812 0.40625,1.4375 0,0.82812 -0.48437,1.57812 -0.48438,0.73438 -1.40625,1.14063 -0.92188,0.39062 -2.07813,0.39062 -1.92187,0 -2.9375,-0.79687 -1,-0.79688 -1.28125,-2.35938 z m 16.75,-0.23437 1.71875,0.21875 q -0.40625,1.5 -1.51562,2.34375 -1.09375,0.82812 -2.8125,0.82812 -2.15625,0 -3.42188,-1.32812 -1.26562,-1.32813 -1.26562,-3.73438 0,-2.48437 1.26562,-3.85937 1.28125,-1.375 3.32813,-1.375 1.98437,0 3.23437,1.34375 1.25,1.34375 1.25,3.79687 0,0.14063 -0.0156,0.4375 l -7.34375,0 q 0.0937,1.625 0.92187,2.48438 0.82813,0.85937 2.0625,0.85937 0.90625,0 1.54688,-0.46875 0.65625,-0.48437 1.04687,-1.54687 z m -5.48437,-2.70313 5.5,0 q -0.10938,-1.23437 -0.625,-1.85937 -0.79688,-0.96875 -2.07813,-0.96875 -1.14062,0 -1.9375,0.78125 -0.78125,0.76562 -0.85937,2.04687 z m 9.09448,5.875 0,-9.85937 1.5,0 0,1.5 q 0.57812,-1.04688 1.0625,-1.375 0.48437,-0.34375 1.07812,-0.34375 0.84375,0 1.71875,0.54687 l -0.57812,1.54688 q -0.60938,-0.35938 -1.23438,-0.35938 -0.54687,0 -0.98437,0.32813 -0.42188,0.32812 -0.60938,0.90625 -0.28125,0.89062 -0.28125,1.95312 l 0,5.15625 -1.67187,0 z m 8.96265,0 -3.75,-9.85937 1.76562,0 2.125,5.90625 q 0.34375,0.95312 0.625,1.98437 0.21875,-0.78125 0.625,-1.875 l 2.1875,-6.01562 1.71875,0 -3.73437,9.85937 -1.5625,0 z m 13.34375,-3.17187 1.71875,0.21875 q -0.40625,1.5 -1.51563,2.34375 -1.09375,0.82812 -2.8125,0.82812 -2.15625,0 -3.42187,-1.32812 -1.26563,-1.32813 -1.26563,-3.73438 0,-2.48437 1.26563,-3.85937 1.28125,-1.375 3.32812,-1.375 1.98438,0 3.23438,1.34375 1.25,1.34375 1.25,3.79687 0,0.14063 -0.0156,0.4375 l -7.34375,0 q 0.0937,1.625 0.92188,2.48438 0.82812,0.85937 2.0625,0.85937 0.90625,0 1.54687,-0.46875 0.65625,-0.48437 1.04688,-1.54687 z m -5.48438,-2.70313 5.5,0 q -0.10937,-1.23437 -0.625,-1.85937 -0.79687,-0.96875 -2.07812,-0.96875 -1.14063,0 -1.9375,0.78125 -0.78125,0.76562 -0.85938,2.04687 z m 9.09448,5.875 0,-9.85937 1.5,0 0,1.5 q 0.57813,-1.04688 1.0625,-1.375 0.48438,-0.34375 1.07813,-0.34375 0.84375,0 1.71875,0.54687 l -0.57813,1.54688 q -0.60937,-0.35938 -1.23437,-0.35938 -0.54688,0 -0.98438,0.32813 -0.42187,0.32812 -0.60937,0.90625 -0.28125,0.89062 -0.28125,1.95312 l 0,5.15625 -1.67188,0 z" />
  <path
     style="fill:#000000;fill-opacity:0;fill-rule:nonzero"
     inkscape:connector-curvature="0"
     id="path161"
     d="m 608.6562,180.82178 76.25195,0" />
  <path
     style="stroke:#000000;stroke-width:2;stroke-linecap:butt;stroke-linejoin:round"
     inkscape:connector-curvature="0"
     id="path163"
     d="m 608.6562,180.82178 64.25195,0" />
  <path
     style="fill:#000000;fill-rule:evenodd;stroke:#000000;stroke-width:2;stroke-linecap:butt"
     inkscape:connector-curvature="0"
     id="path165"
     d="m 672.90814,184.12525 9.07617,-3.30347 -9.07617,-3.30346 z" />
  <path
     style="fill:#000000;fill-opacity:0;fill-rule:nonzero"
     inkscape:connector-curvature="0"
     id="path167"
     d="m 682.01184,191.58392 -76.25201,0.0315" />
  <path
     style="stroke:#000000;stroke-width:2;stroke-linecap:butt;stroke-linejoin:round"
     inkscape:connector-curvature="0"
     id="path169"
     d="m 682.01184,191.58392 -64.25201,0.0266" />
  <path
     style="fill:#000000;fill-rule:evenodd;stroke:#000000;stroke-width:2;stroke-linecap:butt"
     inkscape:connector-curvature="0"
     id="path171"
     d="m 617.7585,188.30701 -9.07483,3.30722 9.07758,3.29971 z" />
  <path
     style="fill:#000000;fill-opacity:0;fill-rule:nonzero"
     inkscape:connector-curvature="0"
     id="path173"
     d="m 584.8202,142.84013 119.37012,0 0,30.67717 -119.37012,0 z" />
  <path
     style="fill:#000000;fill-rule:nonzero"
     inkscape:connector-curvature="0"
     id="path175"
     d="m 597.66394,169.76013 -3.60937,-13.59375 1.84375,0 2.0625,8.90625 q 0.34375,1.40625 0.57812,2.78125 0.51563,-2.17188 0.60938,-2.51563 l 2.59375,-9.17187 2.17187,0 1.95313,6.875 q 0.73437,2.5625 1.04687,4.8125 0.26563,-1.28125 0.6875,-2.95313 l 2.125,-8.73437 1.8125,0 -3.73437,13.59375 -1.73438,0 -2.85937,-10.35938 q -0.35938,-1.29687 -0.42188,-1.59375 -0.21875,0.9375 -0.40625,1.59375 l -2.89062,10.35938 -1.82813,0 z m 21.76495,-3.17188 1.71875,0.21875 q -0.40625,1.5 -1.51562,2.34375 -1.09375,0.82813 -2.8125,0.82813 -2.15625,0 -3.42188,-1.32813 -1.26562,-1.32812 -1.26562,-3.73437 0,-2.48438 1.26562,-3.85938 1.28125,-1.375 3.32813,-1.375 1.98437,0 3.23437,1.34375 1.25,1.34375 1.25,3.79688 0,0.14062 -0.0156,0.4375 l -7.34375,0 q 0.0937,1.625 0.92187,2.48437 0.82813,0.85938 2.0625,0.85938 0.90625,0 1.54688,-0.46875 0.65625,-0.48438 1.04687,-1.54688 z m -5.48437,-2.70312 5.5,0 q -0.10938,-1.23438 -0.625,-1.85938 -0.79688,-0.96875 -2.07813,-0.96875 -1.14062,0 -1.9375,0.78125 -0.78125,0.76563 -0.85937,2.04688 z m 10.65692,5.875 -1.54687,0 0,-13.59375 1.65625,0 0,4.84375 q 1.0625,-1.32813 2.70312,-1.32813 0.90625,0 1.71875,0.375 0.8125,0.35938 1.32813,1.03125 0.53125,0.65625 0.82812,1.59375 0.29688,0.9375 0.29688,2 0,2.53125 -1.25,3.92188 -1.25,1.375 -3,1.375 -1.75,0 -2.73438,-1.45313 l 0,1.23438 z m -0.0156,-5 q 0,1.76562 0.46875,2.5625 0.79687,1.28125 2.14062,1.28125 1.09375,0 1.89063,-0.9375 0.79687,-0.95313 0.79687,-2.84375 0,-1.92188 -0.76562,-2.84375 -0.76563,-0.92188 -1.84375,-0.92188 -1.09375,0 -1.89063,0.95313 -0.79687,0.95312 -0.79687,2.75 z m 8.1726,2.0625 1.65625,-0.26563 q 0.14063,1 0.76563,1.53125 0.64062,0.51563 1.78125,0.51563 1.15625,0 1.70312,-0.46875 0.5625,-0.46875 0.5625,-1.09375 0,-0.5625 -0.48437,-0.89063 -0.34375,-0.21875 -1.70313,-0.5625 -1.84375,-0.46875 -2.5625,-0.79687 -0.70312,-0.34375 -1.07812,-0.9375 -0.35938,-0.60938 -0.35938,-1.32813 0,-0.65625 0.29688,-1.21875 0.3125,-0.5625 0.82812,-0.9375 0.39063,-0.28125 1.0625,-0.48437 0.67188,-0.20313 1.4375,-0.20313 1.17188,0 2.04688,0.34375 0.875,0.32813 1.28125,0.90625 0.42187,0.5625 0.57812,1.51563 l -1.625,0.21875 q -0.10937,-0.75 -0.65625,-1.17188 -0.53125,-0.4375 -1.5,-0.4375 -1.15625,0 -1.64062,0.39063 -0.48438,0.375 -0.48438,0.875 0,0.32812 0.20313,0.59375 0.20312,0.26562 0.64062,0.4375 0.25,0.0937 1.46875,0.4375 1.76563,0.46875 2.46875,0.76562 0.70313,0.29688 1.09375,0.875 0.40625,0.57813 0.40625,1.4375 0,0.82813 -0.48437,1.57813 -0.48438,0.73437 -1.40625,1.14062 -0.92188,0.39063 -2.07813,0.39063 -1.92187,0 -2.9375,-0.79688 -1,-0.79687 -1.28125,-2.35937 z m 9.375,-1.98438 q 0,-2.73437 1.53125,-4.0625 1.26563,-1.09375 3.09375,-1.09375 2.03125,0 3.3125,1.34375 1.29688,1.32813 1.29688,3.67188 0,1.90625 -0.57813,3 -0.5625,1.07812 -1.65625,1.6875 -1.07812,0.59375 -2.375,0.59375 -2.0625,0 -3.34375,-1.32813 -1.28125,-1.32812 -1.28125,-3.8125 z m 1.71875,0 q 0,1.89063 0.82813,2.82813 0.82812,0.9375 2.07812,0.9375 1.25,0 2.0625,-0.9375 0.82813,-0.95313 0.82813,-2.89063 0,-1.82812 -0.82813,-2.76562 -0.82812,-0.9375 -2.0625,-0.9375 -1.25,0 -2.07812,0.9375 -0.82813,0.9375 -0.82813,2.82812 z m 15.71948,1.3125 1.64063,0.21875 q -0.26563,1.6875 -1.375,2.65625 -1.10938,0.95313 -2.73438,0.95313 -2.01562,0 -3.25,-1.3125 -1.21875,-1.32813 -1.21875,-3.79688 0,-1.59375 0.51563,-2.78125 0.53125,-1.20312 1.60937,-1.79687 1.09375,-0.60938 2.35938,-0.60938 1.60937,0 2.625,0.8125 1.01562,0.8125 1.3125,2.3125 l -1.625,0.25 q -0.23438,-1 -0.82813,-1.5 -0.59375,-0.5 -1.42187,-0.5 -1.26563,0 -2.0625,0.90625 -0.78125,0.90625 -0.78125,2.85938 0,1.98437 0.76562,2.89062 0.76563,0.89063 1.98438,0.89063 0.98437,0 1.64062,-0.59375 0.65625,-0.60938 0.84375,-1.85938 z m 2.90625,3.60938 0,-13.59375 1.67188,0 0,7.75 3.95312,-4.01563 2.15625,0 -3.76562,3.65625 4.14062,6.20313 -2.0625,0 -3.25,-5.03125 -1.17187,1.125 0,3.90625 -1.67188,0 z m 16.0625,-3.17188 1.71875,0.21875 q -0.40625,1.5 -1.51562,2.34375 -1.09375,0.82813 -2.8125,0.82813 -2.15625,0 -3.42188,-1.32813 -1.26562,-1.32812 -1.26562,-3.73437 0,-2.48438 1.26562,-3.85938 1.28125,-1.375 3.32813,-1.375 1.98437,0 3.23437,1.34375 1.25,1.34375 1.25,3.79688 0,0.14062 -0.0156,0.4375 l -7.34375,0 q 0.0937,1.625 0.92187,2.48437 0.82813,0.85938 2.0625,0.85938 0.90625,0 1.54688,-0.46875 0.65625,-0.48438 1.04687,-1.54688 z m -5.48437,-2.70312 5.5,0 q -0.10938,-1.23438 -0.625,-1.85938 -0.79688,-0.96875 -2.07813,-0.96875 -1.14062,0 -1.9375,0.78125 -0.78125,0.76563 -0.85937,2.04688 z m 12.76636,4.375 0.23437,1.48437 q -0.70312,0.14063 -1.26562,0.14063 -0.90625,0 -1.40625,-0.28125 -0.5,-0.29688 -0.70313,-0.75 -0.20312,-0.46875 -0.20312,-1.98438 l 0,-5.65625 -1.23438,0 0,-1.3125 1.23438,0 0,-2.4375 1.65625,-1 0,3.4375 1.6875,0 0,1.3125 -1.6875,0 0,5.75 q 0,0.71875 0.0781,0.92188 0.0937,0.20312 0.29688,0.32812 0.20312,0.125 0.57812,0.125 0.26563,0 0.73438,-0.0781 z" />
  <path
     style="fill:#000000;fill-opacity:0;fill-rule:nonzero"
     inkscape:connector-curvature="0"
     id="path177"
     d="m 608.6562,111.1971 76.25195,0" />
  <path
     style="stroke:#000000;stroke-width:2;stroke-linecap:butt;stroke-linejoin:round"
     inkscape:connector-curvature="0"
     id="path179"
     d="m 608.6562,111.1971 64.25195,0" />
  <path
     style="fill:#000000;fill-rule:evenodd;stroke:#000000;stroke-width:2;stroke-linecap:butt"
     inkscape:connector-curvature="0"
     id="path181"
     d="m 672.90814,114.50056 9.07617,-3.30347 -9.07617,-3.30346 z" />
  <path
     style="fill:#000000;fill-opacity:0;fill-rule:nonzero"
     inkscape:connector-curvature="0"
     id="path183"
     d="m 610.80444,68.78502 72.37799,0 0,30.67717 -72.37799,0 z" />
  <path
     style="fill:#000000;fill-rule:nonzero"
     inkscape:connector-curvature="0"
     id="path185"
     d="m 621.32007,95.70502 0,-13.59375 1.8125,0 0,5.57812 7.0625,0 0,-5.57812 1.79687,0 0,13.59375 -1.79687,0 0,-6.40625 -7.0625,0 0,6.40625 -1.8125,0 z m 16.87921,0 0,-12 -4.46875,0 0,-1.59375 10.76563,0 0,1.59375 -4.5,0 0,12 -1.79688,0 z m 11.396,0 0,-12 -4.46875,0 0,-1.59375 10.76562,0 0,1.59375 -4.5,0 0,12 -1.79687,0 z m 7.94287,0 0,-13.59375 5.125,0 q 1.35937,0 2.07812,0.125 1,0.17187 1.67188,0.64062 0.67187,0.46875 1.07812,1.3125 0.42188,0.84375 0.42188,1.84375 0,1.73438 -1.10938,2.9375 -1.09375,1.20313 -3.98437,1.20313 l -3.48438,0 0,5.53125 -1.79687,0 z m 1.79687,-7.14063 3.51563,0 q 1.75,0 2.46875,-0.64062 0.73437,-0.65625 0.73437,-1.82813 0,-0.85937 -0.4375,-1.46875 -0.42187,-0.60937 -1.125,-0.79687 -0.45312,-0.125 -1.67187,-0.125 l -3.48438,0 0,4.85937 z" />
  <path
     style="fill:#000000;fill-opacity:0;fill-rule:nonzero"
     inkscape:connector-curvature="0"
     id="path187"
     d="m 392.62073,109.39395 59.68506,25.41731" />
  <path
     style="stroke:#000000;stroke-width:2;stroke-linecap:butt;stroke-linejoin:round"
     inkscape:connector-curvature="0"
     id="path189"
     d="m 392.62073,109.39395 48.6445,20.71561" />
  <path
     style="fill:#000000;fill-rule:evenodd;stroke:#000000;stroke-width:2;stroke-linecap:butt"
     inkscape:connector-curvature="0"
     id="path191"
     d="m 439.9709,133.14891 9.64484,0.51678 -7.05619,-6.59547 z" />
  <path
     style="fill:#000000;fill-opacity:0;fill-rule:nonzero"
     inkscape:connector-curvature="0"
     id="path193"
     d="m 450.64172,160.22859 -57.48032,26.5197" />
  <path
     style="stroke:#000000;stroke-width:2;stroke-linecap:butt;stroke-linejoin:round"
     inkscape:connector-curvature="0"
     id="path195"
     d="M 450.64172,160.22859 404.05761,181.7211" />
  <path
     style="fill:#000000;fill-rule:evenodd;stroke:#000000;stroke-width:2;stroke-linecap:butt"
     inkscape:connector-curvature="0"
     id="path197"
     d="m 402.6737,178.7215 -6.85742,6.80191 9.62527,-0.8027 z" />
  <path
     style="fill:#cfe2f3;fill-rule:nonzero"
     inkscape:connector-curvature="0"
     id="path199"
     d="m 724.6798,86.0477 0,0 c 0,-5.87375 4.7616,-10.63538 10.63538,-10.63538 l 76.52447,0 c 2.82068,0 5.52588,1.12052 7.52039,3.11502 1.9945,1.99453 3.11499,4.69968 3.11499,7.52036 l 0,42.54027 c 0,5.87375 -4.7616,10.63537 -10.63538,10.63537 l -76.52447,0 c -5.87378,0 -10.63538,-4.76162 -10.63538,-10.63537 z" />
  <path
     style="stroke:#000000;stroke-width:2;stroke-linecap:butt;stroke-linejoin:round"
     inkscape:connector-curvature="0"
     id="path201"
     d="m 724.6798,86.0477 0,0 c 0,-5.87375 4.7616,-10.63538 10.63538,-10.63538 l 76.52447,0 c 2.82068,0 5.52588,1.12052 7.52039,3.11502 1.9945,1.99453 3.11499,4.69968 3.11499,7.52036 l 0,42.54027 c 0,5.87375 -4.7616,10.63537 -10.63538,10.63537 l -76.52447,0 c -5.87378,0 -10.63538,-4.76162 -10.63538,-10.63537 z" />
  <path
     style="fill:#cfe2f3;fill-rule:nonzero"
     inkscape:connector-curvature="0"
     id="path203"
     d="m 742.916,168.79291 6.62994,-26.5197 46.42517,0 6.62995,26.5197 z" />
  <path
     style="stroke:#000000;stroke-width:2;stroke-linecap:butt;stroke-linejoin:round"
     inkscape:connector-curvature="0"
     id="path205"
     d="m 742.916,168.79291 6.62994,-26.5197 46.42517,0 6.62995,26.5197 z" />
  <path
     style="fill:#ffffff;fill-rule:nonzero"
     inkscape:connector-curvature="0"
     id="path207"
     d="m 737.3884,84.87689 72.37799,0 0,44.88188 -72.37799,0 z" />
  <path
     style="stroke:#000000;stroke-width:2;stroke-linecap:butt;stroke-linejoin:round"
     inkscape:connector-curvature="0"
     id="path209"
     d="m 737.3884,84.87689 72.37799,0 0,44.88188 -72.37799,0 z" />
  <path
     style="fill:#4a86e8;fill-rule:nonzero"
     inkscape:connector-curvature="0"
     id="path211"
     d="m 748.9934,86.70903 11.62207,0 0,41.19685 -11.62207,0 z" />
  <path
     style="stroke:#000000;stroke-width:2;stroke-linecap:butt;stroke-linejoin:round"
     inkscape:connector-curvature="0"
     id="path213"
     d="m 748.9934,86.70903 11.62207,0 0,41.19685 -11.62207,0 z" />
  <path
     style="fill:#ff9900;fill-rule:nonzero"
     inkscape:connector-curvature="0"
     id="path215"
     d="m 767.76575,104.16498 11.62207,0 0,23.68504 -11.62207,0 z" />
  <path
     style="stroke:#000000;stroke-width:2;stroke-linecap:butt;stroke-linejoin:round"
     inkscape:connector-curvature="0"
     id="path217"
     d="m 767.76575,104.16498 11.62207,0 0,23.68504 -11.62207,0 z" />
  <path
     style="fill:#ff0000;fill-rule:nonzero"
     inkscape:connector-curvature="0"
     id="path219"
     d="m 786.5381,96.83992 11.62207,0 0,31.08662 -11.62207,0 z" />
  <path
     style="stroke:#000000;stroke-width:2;stroke-linecap:butt;stroke-linejoin:round"
     inkscape:connector-curvature="0"
     id="path221"
     d="m 786.5381,96.83992 11.62207,0 0,31.08662 -11.62207,0 z" />
  <path
     style="fill:#cfe2f3;fill-rule:nonzero"
     inkscape:connector-curvature="0"
     id="path223"
     d="m 842.96454,135.08701 0,0 c 0,-4.11975 3.33972,-7.45946 7.45947,-7.45946 l 29.83698,0 0,0 c 1.97839,0 3.87573,0.78591 5.27466,2.18482 1.39892,1.39892 2.18481,3.29628 2.18481,5.27464 l 0,58.49838 c 0,4.11975 -3.33972,7.45948 -7.45947,7.45948 l -29.83698,0 c -4.11975,0 -7.45947,-3.33973 -7.45947,-7.45948 z" />
  <path
     style="stroke:#000000;stroke-width:2;stroke-linecap:butt;stroke-linejoin:round"
     inkscape:connector-curvature="0"
     id="path225"
     d="m 842.96454,135.08701 0,0 c 0,-4.11975 3.33972,-7.45946 7.45947,-7.45946 l 29.83698,0 0,0 c 1.97839,0 3.87573,0.78591 5.27466,2.18482 1.39892,1.39892 2.18481,3.29628 2.18481,5.27464 l 0,58.49838 c 0,4.11975 -3.33972,7.45948 -7.45947,7.45948 l -29.83698,0 c -4.11975,0 -7.45947,-3.33973 -7.45947,-7.45948 z" />
  <path
     style="fill:#ffffff;fill-rule:nonzero"
     inkscape:connector-curvature="0"
     id="path227"
     d="m 848.4921,135.36508 33.70081,0 0,49.73227 -33.70081,0 z" />
  <path
     style="stroke:#000000;stroke-width:2;stroke-linecap:butt;stroke-linejoin:round"
     inkscape:connector-curvature="0"
     id="path229"
     d="m 848.4921,135.36508 33.70081,0 0,49.73227 -33.70081,0 z" />
  <path
     style="fill:#cfe2f3;fill-rule:nonzero"
     inkscape:connector-curvature="0"
     id="path231"
     d="m 861.2008,194.76405 0,0 c 0,-2.28741 1.85431,-4.14175 4.14172,-4.14175 l 0,0 c 1.09845,0 2.15192,0.43637 2.92865,1.2131 0.77674,0.7767 1.21308,1.83017 1.21308,2.92865 l 0,0 c 0,2.28741 -1.85431,4.14172 -4.14173,4.14172 l 0,0 c -2.28741,0 -4.14172,-1.85431 -4.14172,-4.14172 z" />
  <path
     style="stroke:#000000;stroke-width:2;stroke-linecap:butt;stroke-linejoin:round"
     inkscape:connector-curvature="0"
     id="path233"
     d="m 861.2008,194.76405 0,0 c 0,-2.28741 1.85431,-4.14175 4.14172,-4.14175 l 0,0 c 1.09845,0 2.15192,0.43637 2.92865,1.2131 0.77674,0.7767 1.21308,1.83017 1.21308,2.92865 l 0,0 c 0,2.28741 -1.85431,4.14172 -4.14173,4.14172 l 0,0 c -2.28741,0 -4.14172,-1.85431 -4.14172,-4.14172 z" />
  <path
     style="fill:#4a86e8;fill-rule:nonzero"
     inkscape:connector-curvature="0"
     id="path235"
     d="m 853.515,149.55382 5.56464,0 0,19.72917 -5.56464,0 z" />
  <path
     style="stroke:#000000;stroke-width:2;stroke-linecap:butt;stroke-linejoin:round"
     inkscape:connector-curvature="0"
     id="path237"
     d="m 853.515,149.55382 5.56464,0 0,19.72917 -5.56464,0 z" />
  <path
     style="fill:#ff9900;fill-rule:nonzero"
     inkscape:connector-curvature="0"
     id="path239"
     d="m 862.50323,157.91347 5.56464,0 0,11.34276 -5.56464,0 z" />
  <path
     style="stroke:#000000;stroke-width:2;stroke-linecap:butt;stroke-linejoin:round"
     inkscape:connector-curvature="0"
     id="path241"
     d="m 862.50323,157.91347 5.56464,0 0,11.34276 -5.56464,0 z" />
  <path
     style="fill:#ff0000;fill-rule:nonzero"
     inkscape:connector-curvature="0"
     id="path243"
     d="m 871.4914,154.4055 5.56464,0 0,14.88737 -5.56464,0 z" />
  <path
     style="stroke:#000000;stroke-width:2;stroke-linecap:butt;stroke-linejoin:round"
     inkscape:connector-curvature="0"
     id="path245"
     d="m 871.4914,154.4055 5.56464,0 0,14.88737 -5.56464,0 z" />
</svg>
